<svg width="541" height="471" viewBox="0 0 541 471" fill="none" xmlns="http://www.w3.org/2000/svg">
<rect width="541" height="471" fill="#D9D9D9"/>
<g clip-path="url(#clip0_4_103)">
<path d="M290.333 219.333V229.3C290.333 229.3 283.7 229.333 283.667 229.3V219.333H273.667C273.667 219.333 273.7 212.7 273.667 212.667H283.667V202.667H290.333V212.667H300.333V219.333H290.333ZM280.333 232.667V222.667H270.333V212.667H243.667C240 212.667 237 215.667 237 219.333V259.333C237 263 240 266 243.667 266H283.667C287.333 266 290.333 263 290.333 259.333V232.667H280.333ZM243.667 259.333L253.667 246L260.333 256L270.333 242.667L283.667 259.333H243.667Z" fill="black"/>
</g>
<defs>
<clipPath id="clip0_4_103">
<rect width="80" height="80" fill="white" transform="translate(227 196)"/>
</clipPath>
</defs>
</svg>
